# xmcd
#
# Track frame offsets:
#       182
#       21912
#       44397
#       60577
#       78377
#       92865
#       108887
#       129190
#       146677
#       164230
#       179355
#       197182
#       213480
#       227590
#
# Disc length: 3274 seconds
#
# Revision: 1
# Processed by: cddbd v1.5PL3 Copyright (c) Steve Scherf et al.
# Submitted via: MusiCat 1.1
#
DISCID=c40cc80e
DTITLE=José Augusto - José Augusto
DYEAR=1900
DGENRE=
TTITLE0=Longe de tudo
TTITLE1=O que o amor deixar
TTITLE2=Tô querendo você
TTITLE3=Palavras de amor
TTITLE4=Ternura e Paixão
TTITLE5=Alma gêmea
TTITLE6=Sedução
TTITLE7=Me ensina
TTITLE8=Apenas uma noite
TTITLE9=Besame mucho
TTITLE10=Coisas do coração
TTITLE11=Luz da paz
TTITLE12=Dona do meu coração
TTITLE13=Um novo desejo
EXTD=\n\n
EXTT0=
EXTT1=
EXTT2=
EXTT3=
EXTT4=
EXTT5=
EXTT6=
EXTT7=
EXTT8=
EXTT9=
EXTT10=
EXTT11=
EXTT12=
EXTT13=
PLAYORDER=
